<?xml version="1.0" encoding="utf-8"?>
<!-- Generator: Adobe Illustrator 24.1.1, SVG Export Plug-In . SVG Version: 6.00 Build 0)  -->
<svg version="1.1" id="Layer_1" xmlns="http://www.w3.org/2000/svg" xmlns:xlink="http://www.w3.org/1999/xlink" x="0px" y="0px"
	 viewBox="0 0 95.5 95.5" style="enable-background:new 0 0 95.5 95.5;" xml:space="preserve">
<style type="text/css">
	.st0{fill:#634C0B;}
</style>
<g>
	<path class="st0" d="M56.3,26.3c0-0.2,0-0.3-0.2-0.4l0,0c-0.1-0.1-0.3-0.1-0.5-0.1c-0.2,0.1-0.3,0.2-0.3,0.4l0,0.1
		c-0.1,1.1-0.3,2.1-0.7,3.1l-0.1,0.1c-0.5,0.6-1.1,1-1.9,1.2c-2.2,0.8-3,1.6-3.8,4.1c-0.2,0.6-0.3,1.2-0.4,1.9
		c-0.2,1.4-0.2,1.6-0.1,1.8c0.1,0.1,0.2,0.2,0.4,0.2l0.1,0c0.2,0,0.3-0.1,0.8-0.4c0.7-0.5,1.6-0.9,2.4-1.2c1.8-0.7,2.3-1.1,2.9-2.1
		c0.6-1.2,0.8-2.6,0.7-3.9c0-1.1,0-1.3,0-1.3c0,0,0-0.1,0-0.1C55.9,28.5,56.1,27.4,56.3,26.3z M49.8,35.1c0.7-2.2,1.3-2.8,3.2-3.4
		c0.6-0.2,1.1-0.5,1.6-0.9c0,0.1,0,0.2,0,0.3c0.1,1.2-0.1,2.3-0.6,3.4l0,0c-0.5,0.7-0.9,1-2.4,1.7c-0.8,0.3-1.6,0.7-2.3,1.1
		C49.5,36.5,49.6,35.8,49.8,35.1z"/>
	<path class="st0" d="M40.7,26.3l0-0.1c0-0.2-0.1-0.3-0.3-0.4c-0.2-0.1-0.4,0-0.5,0.1c-0.1,0.1-0.2,0.3-0.2,0.4
		c0.2,1.1,0.4,2.2,0.7,3.3c0,0,0,0.1,0,0.1c0,0.1,0,0.4,0,1.2c-0.1,1.3,0.1,2.7,0.7,3.9c0.6,1,1.1,1.3,2.9,2.1
		c0.9,0.3,1.7,0.7,2.4,1.2c0.5,0.3,0.6,0.4,0.8,0.4h0l0,0c0.2,0,0.3-0.1,0.4-0.2c0.1-0.2,0.2-0.3-0.1-1.8c-0.1-0.6-0.2-1.3-0.4-1.9
		c-0.8-2.5-1.6-3.3-3.8-4.1c-0.7-0.2-1.4-0.6-1.9-1.2l-0.1-0.1C41,28.4,40.8,27.4,40.7,26.3z M44.4,36.1c-1.6-0.7-2-0.9-2.4-1.7
		c-0.5-1.1-0.7-2.2-0.6-3.4v-0.2c0.5,0.4,1,0.7,1.6,0.9c1.9,0.7,2.5,1.3,3.2,3.4c0.2,0.7,0.3,1.4,0.4,2.1
		C45.9,36.7,45.2,36.4,44.4,36.1z"/>
	<path class="st0" d="M39.5,33.6c0-0.2-0.2-0.3-0.3-0.4c-0.2,0-0.4,0-0.5,0.1c-0.1,0.1-0.2,0.3-0.1,0.5c0.3,1,0.6,2.1,1,3.1
		c0,0,0,0.1,0,0.1c0,0.2,0.1,0.9,0.1,1.2c0,1.3,0.4,2.6,1.2,3.7c0.7,0.9,1.2,1.2,3.1,1.7c0.9,0.2,1.7,0.5,2.4,0.9
		c0.2,0.2,0.5,0.3,0.8,0.3l0.1,0c0.2,0,0.3-0.1,0.3-0.3c0.1-0.2,0.1-0.4-0.3-1.7c-0.2-0.6-0.4-1.2-0.6-1.8c-1.1-2.3-1.9-3-4.2-3.5
		c-0.7-0.1-1.4-0.4-1.9-0.9l-0.1-0.1c-0.5-0.9-0.8-1.9-1.1-2.9L39.5,33.6z M42.6,38.6L42.6,38.6c1.7,0.4,2.3,0.9,3.2,2.8
		c0.3,0.6,0.5,1.3,0.7,1.9c-0.7-0.3-1.5-0.6-2.3-0.8c-1.6-0.4-2-0.7-2.5-1.3c-0.6-1-0.9-2.1-1-3.2c0-0.1,0-0.1,0-0.2
		c0.5,0.3,1.1,0.5,1.7,0.6L42.6,38.6z"/>
	<path class="st0" d="M56.8,33.2c-0.2,0-0.3,0.2-0.3,0.4l0,0.1c-0.2,1-0.6,2-1.1,2.9l-0.1,0.1c-0.5,0.5-1.2,0.8-1.9,0.9
		c-2.2,0.5-3.1,1.2-4.2,3.5c-0.2,0.6-0.4,1.2-0.6,1.8c-0.4,1.4-0.4,1.5-0.3,1.7c0.1,0.1,0.2,0.2,0.3,0.3l0.1,0l0.1,0
		c0.3-0.1,0.5-0.2,0.7-0.3c0.8-0.4,1.6-0.7,2.5-0.9c1.8-0.5,2.4-0.8,3.1-1.7c0.7-1.1,1.1-2.4,1.2-3.7c0.1-0.7,0.1-1.2,0.1-1.2
		c0,0,0-0.1,0-0.1c0.4-1,0.7-2.1,1-3.1c0-0.2,0-0.4-0.1-0.5C57.2,33.2,57,33.2,56.8,33.2z M55.2,38.3c-0.1,1.1-0.4,2.1-1,3
		c-0.5,0.7-1,0.9-2.5,1.3c-0.8,0.2-1.5,0.4-2.3,0.8c0.2-0.7,0.4-1.3,0.7-1.9c1-2,1.6-2.5,3.5-2.9c0.6-0.1,1.1-0.3,1.7-0.6L55.2,38.3
		L55.2,38.3z"/>
	<path class="st0" d="M57.3,40.6l0,0.1c-0.3,1-0.7,2-1.3,2.8l-0.1,0.1c-0.6,0.4-1.3,0.7-2,0.7c-2.3,0.3-3.1,0.9-4.4,3.1
		c-0.3,0.6-0.5,1.1-0.8,1.7c-0.5,1.3-0.5,1.5-0.4,1.7c0.1,0.1,0.2,0.3,0.3,0.3l0.1,0l0.1,0c0.3,0,0.5-0.1,0.7-0.2
		c0.8-0.3,1.7-0.6,2.5-0.7c1.8-0.3,2.5-0.6,3.2-1.4c0.8-1,1.3-2.3,1.5-3.6l0-0.1c0.1-0.7,0.2-1.1,0.2-1.1c0,0,0-0.1,0-0.1
		c0.5-1,0.9-2,1.3-3c0.1-0.2,0-0.4-0.1-0.5c-0.1-0.1-0.3-0.2-0.5-0.2C57.5,40.3,57.4,40.5,57.3,40.6z M55.7,45.1
		c-0.1,1.1-0.6,2.2-1.2,3.1c-0.6,0.6-1,0.8-2.6,1.1c-0.8,0.1-1.6,0.3-2.3,0.6c0.2-0.6,0.5-1.3,0.8-1.9c1.1-1.9,1.7-2.4,3.7-2.6
		c0.6-0.1,1.2-0.2,1.7-0.5L55.7,45.1z"/>
	<path class="st0" d="M37.8,40.5c-0.1,0.1-0.2,0.3-0.1,0.5c0.4,1,0.8,2,1.3,3c0,0,0,0.1,0,0.1c0,0.2,0.1,0.5,0.2,1.1l0,0.1
		c0.2,1.3,0.7,2.5,1.5,3.6c0.7,0.8,1.3,1.1,3.2,1.4c0.9,0.1,1.7,0.4,2.5,0.7c0.2,0.1,0.5,0.2,0.8,0.3l0.1,0c0.1,0,0.3-0.2,0.3-0.3
		c0.1-0.2,0.1-0.4-0.4-1.7c-0.2-0.6-0.5-1.2-0.8-1.7c-1.3-2.2-2.2-2.8-4.4-3.1c-0.7-0.1-1.4-0.3-2-0.7L40,43.6
		c-0.6-0.9-1-1.8-1.3-2.8l0-0.1c-0.1-0.2-0.2-0.3-0.4-0.3C38.1,40.3,37.9,40.3,37.8,40.5z M45.6,48c0.3,0.6,0.6,1.2,0.8,1.9
		c-0.8-0.3-1.5-0.5-2.3-0.6c-1.6-0.3-2.1-0.5-2.6-1.1c-0.7-0.9-1.1-2-1.2-3.1c0-0.1,0-0.1,0-0.2c0.5,0.2,1.1,0.4,1.7,0.5h0
		C43.9,45.6,44.5,46.1,45.6,48z"/>
	<path class="st0" d="M48.7,15.2c-0.5-0.8-0.7-0.9-0.9-0.9c-0.3,0-0.4,0.2-0.9,1.1c-1,1.6-1.5,3.5-1.5,5.4c0.2,1.4,0.8,2.7,1.6,3.9
		l0.3,0.5l0,0.1c0.1,0.2,0.3,0.3,0.6,0.4c0.2,0,0.4-0.1,0.5-0.3l0.2-0.3c1-1.4,1.7-3,1.9-4.8c-0.1-1.3-0.4-2.6-1-3.8
		C49.3,16.1,49,15.6,48.7,15.2z M49.6,20.1c-0.2,1.5-0.8,2.9-1.7,4.1L47.8,24c-0.7-1-1.2-2.2-1.4-3.4c0-1.7,0.5-3.3,1.4-4.8
		c0-0.1,0.1-0.2,0.1-0.2c0.3,0.4,0.6,0.8,0.8,1.3C49.2,17.9,49.5,19,49.6,20.1z"/>
	<path class="st0" d="M54.6,19.2c0-0.2-0.1-0.3-0.2-0.4c-0.2-0.1-0.3-0.1-0.5,0c-0.2,0.1-0.2,0.2-0.2,0.4v0.1c0,1-0.1,2-0.3,3l0,0.1
		c-0.4,0.6-1,1-1.6,1.3c-2,1-2.6,1.8-3.1,4.2c-0.1,0.6-0.2,1.2-0.2,1.8c-0.1,1.4,0,1.5,0.1,1.7c0.1,0.1,0.2,0.2,0.4,0.2c0,0,0,0,0,0
		c0.2,0,0.3-0.1,0.7-0.5c0.6-0.6,1.4-1,2.1-1.4c1.6-0.9,2.1-1.3,2.5-2.3c0.4-1.2,0.5-2.5,0.2-3.7c-0.1-1-0.2-1.2-0.2-1.2
		c0,0,0-0.1,0-0.1C54.4,21.4,54.5,20.3,54.6,19.2z M53.3,27.1c-0.3,0.7-0.7,1-2.1,1.8c-0.7,0.3-1.4,0.8-2,1.3c0-0.7,0.1-1.3,0.2-2
		c0.4-2.1,0.9-2.7,2.6-3.6c0.5-0.3,1-0.6,1.4-1l0,0.2C53.7,24.9,53.7,26,53.3,27.1z"/>
	<path class="st0" d="M41.8,27.4L41.8,27.4c0.4,1,0.9,1.4,2.5,2.3c0.8,0.4,1.5,0.9,2.1,1.4c0.4,0.4,0.5,0.5,0.8,0.5c0,0,0,0,0,0
		c0.1,0,0.3-0.1,0.4-0.2c0.1-0.1,0.2-0.3,0.1-1.7c0-0.6-0.1-1.2-0.2-1.8c-0.5-2.4-1.1-3.2-3.1-4.2c-0.6-0.3-1.2-0.7-1.6-1.3
		l-0.1-0.1c-0.2-1-0.4-2-0.3-3v-0.1c0-0.2-0.1-0.3-0.2-0.4c-0.1-0.1-0.3-0.1-0.5,0c-0.1,0.1-0.2,0.2-0.2,0.4c0,1.1,0.1,2.1,0.2,3.2
		c0,0,0,0.1,0,0.1c0,0.1-0.1,0.3-0.2,1.2C41.3,24.9,41.3,26.2,41.8,27.4z M42.5,23.8L42.5,23.8c0-0.1,0-0.2,0-0.2
		c0.4,0.4,0.9,0.7,1.4,1c1.7,0.8,2.2,1.4,2.6,3.5c0.1,0.7,0.2,1.3,0.2,2c-0.6-0.5-1.3-0.9-2-1.3c-1.4-0.8-1.8-1.1-2.1-1.8
		C42.3,26,42.3,24.9,42.5,23.8z"/>
	<path class="st0" d="M81.5,13.9c-1.8-1.8-3.7-3.4-5.8-4.9L75.7,9c-6-4.4-13-7.2-20.3-8.4C34.1-2.8,13.1,8.5,4.1,28.1L4,28.3
		c-0.2,0.4-0.2,0.8,0,1.2c0,0.1,0.1,0.2,0.1,0.2c1,2.1,2.2,4,3.8,5.8c2,2.2,4.1,4.3,6.3,6.3c2.3,2.1,4.7,4.1,7.2,5.8
		c1.2,0.9,2.5,1.7,3.9,2.4c1.3,0.8,2.8,1.4,4.3,1.8c1.7,0.5,3.5,0.2,5.1-0.6c1.1-0.7,2.3-1.5,3.3-2.3c0.3-0.2,0.3-0.5,0.1-0.8
		c-0.2-0.2-0.5-0.3-0.7-0.1c-0.3,0.2-0.5,0.4-0.8,0.6c-0.6,0.4-1.2,0.9-1.9,1.3c-0.6,0.4-1.2,0.7-1.9,0.9c-0.7,0.1-1.4,0.2-2.1,0.1
		c-1.5-0.2-2.9-0.7-4.2-1.5c-1.3-0.7-2.6-1.4-3.8-2.2c-2.5-1.7-4.8-3.5-7-5.5c-2.4-2.1-4.4-4-6.2-6c-1.8-1.8-3.3-4-4.4-6.3
		c-0.1-0.3-0.1-0.6,0-0.9C12.7,11.9,29.4,1.1,47.7,1.1c0,0,0,0,0.1,0c25,0,46.4,21,46.7,45.8c0.3,26-20.6,47.3-46.6,47.6
		c-0.2,0-0.4,0-0.6,0c-24.7,0-45.4-20.3-46.2-45.4c3.4,2.1,6.7,4.1,9.2,5.7c3.6,2.2,7.3,4.4,10.9,6.5l1.2,0.7c2,1.1,4,2.3,6.1,3.3
		c0.3,0.1,0.6,0.3,0.9,0.4c1.3,0.3,2.5,0.5,3.8,0.5c3.1,0.3,5.8,1.8,8.5,3.1l0.2,0.1c1,0.5,2,1.1,2.9,1.6l0.9,0.5
		c0.8,0.5,1.6,0.9,2.5,1.1c1,0.2,2,0.3,3,0.3c1.2-0.1,2.3-0.4,3.3-1c0.8,0.6,1.8,0.9,2.8,0.8c1.2-0.1,2.3-0.5,3.3-1.3
		c0.2-0.1,0.4-0.3,0.6-0.5c0.5,0.4,1,0.6,1.6,0.7c0.8,0.1,1.5,0.1,2.3,0c0.8-0.1,1.6-0.5,2.2-1c0.5-0.4,1-0.8,1.6-1.3
		c0.7,0.1,1.5,0.1,2.2,0c0.7-0.1,1.5-0.1,2.2-0.2c1.4-0.1,2.9-0.3,4.3-0.6c1.4-0.2,2.8-0.7,4-1.3c1.2-0.7,2.4-1.4,3.5-2.2
		c1.1-0.7,2.2-1.6,3.2-2.5l0.1-0.1c0.6-0.5,1.5-1.4,1.5-2.3c0-0.4-0.2-0.7-0.5-1c-0.5-0.4-1.3-0.5-1.9-0.2c-0.7,0.2-1.3,0.5-1.9,0.9
		c-0.8,0.4-1.5,0.9-2.2,1.3c-0.4,0.3-0.8,0.5-1.3,0.8c-0.6,0.4-1.3,0.7-2,1.1c-0.7,0.4-1.4,0.6-2.2,0.6c-0.7,0-1.4,0-2-0.1l-0.5,0
		c-0.7,0-1.3-0.1-2-0.1c0.3-0.5,0.5-1.1,0.7-1.6c0.4-1.1,0.9-2.3,1.3-3.4l0.6-1.6c0.7-1.6,1.2-3.3,1.6-5c0.1-0.4,0.1-0.8,0.2-1.2
		c0.1-0.4,0-0.9-0.3-1.2c-0.4-0.4-1.1-0.4-1.9,0c-1.3,0.8-2.3,1.9-3,3.3c-0.3,0.5-0.5,1.1-0.7,1.6c-0.1,0.2-0.2,0.4-0.3,0.6
		c-0.3,0.6-0.6,1.3-1,1.9l-0.2,0.5c-0.2,0.3-0.3,0.6-0.4,0.9c-0.2,0.5-0.5,1-0.8,1.5l-0.3,0.5c-0.1,0.2-0.3,0.4-0.4,0.7
		c-0.1-0.2-0.2-0.4-0.3-0.6c-1.3-2.2-2.7-4.4-4.3-6.5c-0.1-0.1-0.2-0.2-0.3-0.4c1.4-0.3,2.8-0.6,4.1-1c1.3-0.3,2.7-0.7,3.9-1.2
		c1.1-0.5,2.2-1.4,2.9-2.4c0.2-0.3,0.7-0.9,0.4-1.6c-0.3-0.6-1.1-0.6-1.4-0.6c-0.4,0-0.7,0-1.1,0.1c-1,0.2-2.1,0.3-3.5,0.4l-1.1,0.1
		c-1.4,0.1-2.8,0.2-4.2,0.4l-0.7,0.1c-0.1,0-0.2,0-0.3,0c-0.2,0-0.3,0-0.5,0l-0.3,0c-0.9,0-1.7-0.1-2.6-0.1l-0.9-0.1
		c-0.1,0-0.3,0-0.4,0.1c-0.1,0.1-0.2,0.2-0.2,0.4c0,0.3,0.2,0.5,0.5,0.5c1.1,0.1,2.5,0.2,3.8,0.2c0.5,0,0.9,0,1.4-0.1
		c1.4-0.2,2.9-0.3,4.3-0.4c0.6-0.1,1.2-0.1,1.9-0.2c0.9-0.1,1.8-0.2,2.5-0.3c0.5-0.1,1-0.1,1.5-0.1c0,0,0.2,0,0.2,0
		c0,0.1-0.1,0.2-0.2,0.4c-0.3,0.5-0.8,0.9-1.2,1.3c-1,0.8-2.1,1.3-3.3,1.6c-1.4,0.4-2.8,0.7-4.1,1c-0.8,0.2-1.5,0.3-2.3,0.5
		c-0.1-0.1-0.1-0.2-0.2-0.3l0-0.1c-0.2-0.5-0.5-1.1-1.3-1c-0.6,0.1-1.1,0.5-1.3,1c-0.4-0.2-1-0.1-1.3,0.3c-0.5,0.6-0.8,1.3-0.9,2.1
		c0,0.9,0.1,1.8,0.4,2.6c0.2,0.8,0.4,1.6,0.6,2.4c0.2,0.7,0,1.5-0.5,2.1c-0.3,0.2-0.6,0.4-1,0.6l-0.1,0c-0.6,0.3-1.2,0.6-1.8,0.9
		c-0.7,0.4-1.4,0.8-2.1,1.3c-0.2,0.2-0.5,0.4-0.8,0.5c-0.4,0-0.8-0.2-1.1-0.6c-0.8-0.9-1.6-1.9-2.3-2.9L49.2,61
		c-0.8-1-1.6-2.1-2.5-3.1c-0.4-0.4-0.8-0.8-1.3-1.1c-1.7-0.8-3.5-1.2-5.3-1.1c-1.6,0-3.2,0.1-4.8,0.5c-0.1,0-0.2,0.1-0.3,0.3
		S35,56.8,35,57c0.1,0.2,0.3,0.4,0.6,0.3c1.6-0.4,3.2-0.5,4.8-0.5c1.6-0.1,3.2,0.3,4.6,1c0.4,0.3,0.8,0.7,1.1,1.1
		c0.9,1.1,1.8,2.3,2.7,3.4l0.3,0.3c0.6,0.9,1.3,1.7,2,2.5c0.4,0.5,1.1,0.7,1.8,0.7c0.4-0.1,0.8-0.3,1.1-0.5c0.5-0.4,1-0.8,1.6-1.1
		c0.6-0.4,1.3-0.7,2.1-1.1c0.4-0.2,0.8-0.4,1.2-0.6c0.7-0.5,1.2-1.3,1.3-2.2c0-0.5,0-1.1-0.1-1.6c-0.2-0.8-0.4-1.6-0.6-2.3l-0.1-0.3
		c-0.3-0.7-0.3-1.5-0.1-2.2c0.1-0.3,0.2-0.6,0.5-0.8c0,0,0,0,0.1,0c0.2,0.2,0.3,0.5,0.4,0.8l0,0.1c0,0,0,0.1,0,0.1
		c0.2,0.6,0.5,1.2,0.8,1.8c0.2,0.5,0.5,1,0.8,1.5c0.4,0.8,0.8,1.6,1.1,2.4c0.2,0.7,0.4,1.4,0.4,2.1c0,0.6-0.2,1.2-0.6,1.6
		c-0.5,0.6-1.1,1.1-1.7,1.5l-0.5,0.3c-0.6,0.4-1.2,0.9-1.8,1.4c-1,0.8-1.9,1.7-2.8,2.6c-0.6,0.6-1.2,1.1-1.9,1.5
		c-0.7,0.4-1.4,0.8-2.1,0.9c-0.6,0.1-1.3,0.1-2,0.1c-0.8,0-1.6-0.2-2.4-0.5c-0.9-0.4-1.8-0.9-2.6-1.4c-1.6-0.9-3.3-1.8-4.5-2.4
		c-1.3-0.7-2.6-1.2-3.9-1.7c-1.4-0.4-2.8-0.7-4.2-0.8c-1,0-2-0.2-3-0.5l-0.3-0.1c-0.2-0.1-0.3-0.2-0.5-0.2c-0.4-0.2-0.9-0.5-1.3-0.7
		c-1.3-0.7-2.7-1.5-3.8-2.1c-3-1.7-6.2-3.6-10.3-6.1c-3.5-2.1-7-4.2-10.4-6.4l-1.9-1.2c-0.3-0.2-0.6-0.1-0.8,0.2C0,48,0,48.2,0,48.3
		c0.1,12.5,5,24.2,13.8,33.1c8.7,9,20.9,14.1,33.4,14.1c0,0,0.1,0,0.1,0c12.7,0,25.1-5.2,34-14.1c0.1-0.1,0.3-0.3,0.4-0.4
		c8.9-9,13.8-20.9,13.8-33.6S90.5,22.8,81.5,13.9z M63.3,68.9c0.8-0.9,1.8-1.8,2.7-2.6c1-0.7,1.9-1.5,2.6-2.6
		c0.2-0.4,0.4-0.9,0.4-1.4c0.3-0.6,0.6-1.2,1-1.7c0.4-0.6,0.7-1.2,1-1.8c0.3-0.6,0.6-1.1,0.9-1.7c0.4-0.8,0.8-1.5,1.2-2.4
		c0.5-1.2,1.2-2.4,2-3.4c0.4-0.5,0.9-0.8,1.5-1.1c0.2-0.1,0.3-0.1,0.4-0.1c0.1,0,0.1,0,0.1,0c0,0,0,0.2,0,0.3c0,0.2-0.1,0.4-0.1,0.6
		c-0.3,1.6-0.8,3.1-1.4,4.6l-1.7,4.7c-0.5,1.4-1.1,2.7-1.8,4c-0.8,1.2-1.6,2.2-2.6,3.2c-0.5,0.5-1.1,1-1.8,1.6
		c-0.5,0.5-1.2,1-1.8,1.3c-0.8,0.3-1.6,0.4-2.4,0.2c-0.5,0-1-0.1-1.4-0.4C62.4,69.8,62.8,69.3,63.3,68.9z M61.8,52
		c0.1,0,0.1,0.2,0.1,0.3c0,0.1,0,0.1,0.1,0.2c0.1,0.3,0.3,0.5,0.4,0.8c0.3,0.4,0.6,0.9,1,1.3c1.4,1.8,2.7,3.8,3.9,5.8
		c0.3,0.4,0.5,0.9,0.7,1.4c0.1,0.5,0,1-0.2,1.4c-0.6,0.9-1.3,1.6-2.2,2.2c-0.9,0.7-1.7,1.5-2.5,2.3c-0.2,0.2-0.4,0.4-0.6,0.7
		c-0.5,0.6-1.1,1.2-1.7,1.7c-0.8,0.8-1.9,1.3-3,1.6c-0.8,0.2-1.6,0-2.3-0.3c0.6-0.5,1.2-1,1.8-1.6c1.1-1.1,2.2-2.1,3.4-3
		c0.2-0.2,0.5-0.4,0.7-0.5c1-0.7,2.2-1.6,2.8-2.8c0.3-0.6,0.4-1.3,0.2-2c-0.1-0.7-0.3-1.4-0.5-2.1c-0.3-0.8-0.7-1.6-1.1-2.4
		c-0.3-0.6-0.6-1.1-0.9-1.7c-0.2-0.4-0.3-0.8-0.5-1.1l-0.2-0.4c-0.1-0.4-0.1-0.8,0.1-1.2C61.4,52.3,61.5,52.1,61.8,52
		C61.7,52,61.7,52,61.8,52z M73.1,64.4c1.5,0.1,2.9,0.2,4.2,0.2c0.7,0,1.4,0,2.1-0.2c0.6-0.2,1.2-0.4,1.8-0.7c1-0.5,2-1.1,2.9-1.7
		l0.4-0.2c1-0.7,2.2-1.3,3.3-1.8c0.3-0.1,0.8-0.2,1-0.1c0.1,0,0.1,0.1,0.2,0.2c0.1,0.4-0.4,0.8-0.7,1.2c-0.1,0.1-0.1,0.1-0.2,0.2
		c-0.6,0.6-1.2,1.1-1.9,1.6c-1.4,1-2.8,1.9-4.1,2.7c-1.1,0.6-2.2,1.1-3.4,1.5c-1.6,0.4-3.3,0.7-5,0.8c-0.8,0.1-1.5,0.1-2.3,0.2
		c-0.5,0.1-1,0.1-1.5,0.1c0.8-0.8,1.5-1.6,2.2-2.5C72.5,65.4,72.8,64.9,73.1,64.4z"/>
</g>
</svg>
