<svg id="youtube" xmlns="http://www.w3.org/2000/svg" width="24" height="24" viewBox="0 0 24 24">
  <defs>
    <style>
      .cls-1 {
        fill: #634c0b;
      }
    </style>
  </defs>
  <path id="youtube-2" data-name="youtube" class="cls-1" d="M4219-4255a11.917,11.917,0,0,1-8.485-3.515A11.918,11.918,0,0,1,4207-4267a11.919,11.919,0,0,1,3.515-8.485A11.921,11.921,0,0,1,4219-4279a11.919,11.919,0,0,1,8.485,3.515A11.921,11.921,0,0,1,4231-4267a11.92,11.92,0,0,1-3.515,8.485A11.917,11.917,0,0,1,4219-4255Zm-3.5-17.5h0v11l10-5.5-10-5.5Z" transform="translate(-4207 4279)"/>
</svg>
