<svg xmlns="http://www.w3.org/2000/svg" width="839.197" height="839.299" viewBox="0 0 839.197 839.299">
  <defs>
    <style>
      .cls-1 {
        opacity: 0.05;
      }

      .cls-2 {
        fill: #634c0b;
        stroke: #634c0b;
        stroke-width: 0.5px;
      }
    </style>
  </defs>
  <g id="logo-bg" class="cls-1" transform="translate(0.25 0.352)">
    <path id="Path_539" data-name="Path 539" class="cls-2" d="M507.041,413.847a2.267,2.267,0,0,1,2.213-.276,2.021,2.021,0,0,1,1.24,1.66l.146,1.133c1.232,9.561,2.5,19.448,6.357,28.272a2.7,2.7,0,0,0,.394.644c.2.243.409.507.619.781,3.214,4.2,9.24,7.964,17.424,10.878,19.06,6.734,25.1,13.168,32.284,34.406,1.12,3.233,2.586,10.8,3.5,16.307,2.087,12.539,1.487,13.483,1.053,14.167a2.289,2.289,0,0,1-1.691,1.067,2.542,2.542,0,0,1-.306.02c-.742,0-1.722-.431-5.673-3.285-5.1-3.753-9.978-6.253-21.76-11.139-15.256-6.326-19.868-9.6-24.672-17.5-4.287-7.041-5.937-16.107-6.085-33.459.011-6.664.083-10.449.217-11.293l-.045-.243c-.071-.434-.147-.863-.249-1.287a258.775,258.775,0,0,1-5.725-28.972A1.973,1.973,0,0,1,507.041,413.847Zm14.9,74.844c4.244,6.987,8.257,9.778,22.6,15.724,12.2,5.059,17.13,7.568,22.67,11.648q.458.332.87.622c-.761-6.6-3.021-19.589-4.518-23.916-6.711-19.825-11.963-25.452-29.592-31.682a52.012,52.012,0,0,1-17.426-10.274c-.023,1.687-.041,3.912-.045,6.691C516.632,473.95,518.108,482.4,521.936,488.691Z" transform="translate(-160.15 -186.188)"/>
    <path id="Path_540" data-name="Path 540" class="cls-2" d="M521.584,446.061c.211-.274.417-.538.621-.781a2.724,2.724,0,0,0,.394-.644c3.851-8.824,5.125-18.712,6.357-28.272l.144-1.133a2.024,2.024,0,0,1,1.241-1.66,2.271,2.271,0,0,1,2.216.276,1.982,1.982,0,0,1,.755,1.879,259.3,259.3,0,0,1-5.724,28.972c-.1.424-.182.854-.253,1.287l-.044.243c.132.844.205,4.629.217,11.293-.148,17.352-1.8,26.418-6.086,33.459-4.8,7.906-9.415,11.177-24.671,17.5-11.78,4.887-16.663,7.386-21.759,11.139-3.95,2.854-4.93,3.285-5.674,3.285a2.526,2.526,0,0,1-.3-.02,2.288,2.288,0,0,1-1.689-1.067c-.434-.685-1.034-1.628,1.053-14.167.914-5.5,2.38-13.074,3.5-16.307,7.189-21.238,13.224-27.672,32.284-34.406C512.345,454.024,518.369,450.265,521.584,446.061ZM476.042,492.77c-1.5,4.327-3.757,17.314-4.521,23.916.276-.193.565-.4.871-.622,5.543-4.08,10.471-6.589,22.672-11.648,14.339-5.946,18.352-8.737,22.6-15.724,3.829-6.29,5.3-14.741,5.444-31.187,0-2.779-.023-5-.044-6.691a52.048,52.048,0,0,1-17.428,10.274C488.006,467.317,482.751,472.944,476.042,492.77Z" transform="translate(-45.034 -186.188)"/>
    <path id="Path_541" data-name="Path 541" class="cls-2" d="M534.173,449.324a2.066,2.066,0,0,1,1.472-1.522,2.314,2.314,0,0,1,2.2.561,2.023,2.023,0,0,1,.525,2,251.26,251.26,0,0,1-9.031,27.194c-.151.393-.276.8-.395,1.2l-.069.233c.026.8-.365,4.456-1.165,10.879-2.252,16.688-4.945,25.225-9.938,31.5-5.6,7.048-10.449,9.641-25.924,13.882-11.919,3.268-16.913,5.077-22.276,8.073-3.752,2.049-4.945,2.494-5.683,2.494a2.192,2.192,0,0,1-.532-.073,2.325,2.325,0,0,1-1.57-1.289c-.362-.774-.812-1.734,2.726-13.583,1.553-5.186,3.885-12.3,5.355-15.275,9.515-19.607,16.117-25.074,35.318-29.252,8.208-1.8,14.445-4.683,18.037-8.322.237-.24.467-.47.694-.681a2.411,2.411,0,0,0,.435-.546c4.77-8,7.192-17.348,9.535-26.384Zm-28.027,41.407c-17.673,3.846-23.4,8.61-32.25,26.842-1.938,3.922-5.617,15.886-7.185,22.206q.334-.178.7-.376c5.715-3.19,10.932-5.092,23.258-8.472,14.492-3.971,18.682-6.163,23.6-12.348,4.434-5.571,6.873-13.512,9-29.286.317-2.558.564-4.625.744-6.222A50.518,50.518,0,0,1,506.146,490.731Z" transform="translate(-39.787 -154.792)"/>
    <path id="Path_542" data-name="Path 542" class="cls-2" d="M509.067,447.8a2.07,2.07,0,0,1,1.472,1.522l.286,1.109c2.342,9.031,4.766,18.37,9.53,26.366a2.4,2.4,0,0,0,.44.55c.223.21.453.438.69.679,3.592,3.64,9.831,6.517,18.038,8.32,19.2,4.178,25.8,9.647,35.317,29.245,1.476,2.989,3.808,10.1,5.358,15.284,3.541,11.852,3.088,12.813,2.726,13.582a2.338,2.338,0,0,1-1.571,1.29,2.2,2.2,0,0,1-.533.072c-.737,0-1.931-.445-5.691-2.5-5.353-2.991-10.348-4.8-22.266-8.067-15.477-4.242-20.323-6.836-25.924-13.882-4.993-6.274-7.687-14.812-9.939-31.51-.55-4.4-1.2-9.86-1.156-10.868l-.077-.237c-.121-.405-.245-.808-.4-1.2a252.082,252.082,0,0,1-9.03-27.194,2.026,2.026,0,0,1,.529-2A2.323,2.323,0,0,1,509.067,447.8Zm12.378,41.485c2.129,15.784,4.568,23.724,9,29.3,4.916,6.182,9.107,8.376,23.6,12.346,12.367,3.391,17.327,5.161,23.253,8.469.243.133.477.258.7.379-1.563-6.315-5.243-18.277-7.181-22.206l0-.005c-8.848-18.227-14.575-22.993-32.248-26.836a50.52,50.52,0,0,1-17.863-7.656C520.881,484.669,521.127,486.736,521.445,489.286Z" transform="translate(-170.514 -154.79)"/>
    <path id="Path_543" data-name="Path 543" class="cls-2" d="M522.942,509.011c.241.19.487.4.743.622,3.868,3.341,10.313,5.716,18.642,6.862,19.471,2.641,26.486,7.567,37.526,26.349,1.7,2.842,4.589,9.754,6.552,14.807,4.47,11.53,4.1,12.526,3.8,13.326a2.335,2.335,0,0,1-1.464,1.407,2.127,2.127,0,0,1-.525.115c-.738.06-1.961-.289-5.872-2.039-5.576-2.556-10.7-3.962-22.838-6.274-15.764-3-20.8-5.2-26.943-11.778-5.475-5.859-8.839-14.156-12.409-30.623-.9-4.345-1.976-9.735-2.015-10.743l-.1-.229c-.152-.4-.308-.785-.49-1.165a251.478,251.478,0,0,1-11.161-26.391,2.022,2.022,0,0,1,.368-2.037,2.32,2.32,0,0,1,2.148-.736,2.075,2.075,0,0,1,1.587,1.4l.364,1.051c3.053,8.828,6.21,17.956,11.6,25.56A2.472,2.472,0,0,0,522.942,509.011Zm1.6,11.852c3.372,15.561,6.436,23.282,11.3,28.482,5.392,5.776,9.741,7.63,24.5,10.436,12.557,2.393,17.907,3.871,23.849,6.6l.732.321c-2.066-6.179-6.685-17.814-8.93-21.569-10.265-17.465-16.352-21.763-34.275-24.191a50.55,50.55,0,0,1-18.414-6.214C523.609,516.3,524.021,518.341,524.541,520.863Z" transform="translate(-177.645 -124.867)"/>
    <path id="Path_544" data-name="Path 544" class="cls-2" d="M537.741,481.886a2.076,2.076,0,0,1,1.587-1.4,2.319,2.319,0,0,1,2.148.736,2.024,2.024,0,0,1,.366,2.037,250.732,250.732,0,0,1-11.161,26.391c-.18.38-.337.77-.489,1.165l-.094.229c-.041,1.008-1.119,6.4-2.016,10.743-3.569,16.467-6.934,24.764-12.408,30.623-6.144,6.578-11.179,8.779-26.945,11.778-12.138,2.312-17.26,3.718-22.836,6.274-3.911,1.75-5.135,2.1-5.871,2.039a2.1,2.1,0,0,1-.525-.115,2.337,2.337,0,0,1-1.466-1.407c-.3-.8-.671-1.8,3.8-13.326,1.963-5.053,4.857-11.965,6.555-14.807,11.04-18.782,18.055-23.708,37.525-26.349,8.326-1.146,14.772-3.52,18.64-6.862.258-.22.5-.432.744-.622a2.439,2.439,0,0,0,.481-.515c5.394-7.6,8.551-16.732,11.6-25.56Zm-31.224,39.052c-17.925,2.429-24.012,6.726-34.275,24.191-2.245,3.755-6.866,15.391-8.93,21.569l.73-.321c5.942-2.726,11.294-4.2,23.85-6.6,14.762-2.806,19.113-4.66,24.505-10.436,4.861-5.2,7.924-12.921,11.3-28.482.521-2.522.93-4.564,1.237-6.139A50.547,50.547,0,0,1,506.517,520.938Z" transform="translate(-36.178 -124.867)"/>
    <path id="Path_545" data-name="Path 545" class="cls-2" d="M508.337,366.613c4.565-6.711,5.42-7.057,6.434-7.067,1.129-.012,1.807.321,6.019,8.314,9.9,18.665,14.337,34.727,12.833,46.444-1.212,9.84-5.922,21.346-13.628,33.282l-2.8,4.259-.352.691a3.3,3.3,0,0,1-2.63,1.883l-.2.009a3.169,3.169,0,0,1-2.64-1.46l-1.859-2.7c-10.1-14.676-16.438-30.306-16.54-40.792-.089-9.191,3.327-21.613,8.923-32.422C503.233,374.495,505.764,370.4,508.337,366.613Zm4.336,80.727,1.218,1.771.027-.041,2.84-4.325c7.29-11.294,11.735-22.059,12.852-31.132,1.365-10.619-2.881-25.591-12.275-43.3-1.117-2.121-2.09-3.84-2.783-5a127.213,127.213,0,0,0-9.191,14.187c-5.147,9.946-8.423,21.7-8.341,29.942C497.113,418.923,503.112,433.447,512.674,447.34Z" transform="translate(-95.988 -233.834)"/>
    <path id="Path_546" data-name="Path 546" class="cls-2" d="M508.6,410.861a244.646,244.646,0,0,1-2.174-27.77,1.868,1.868,0,0,1,.915-1.677,2.143,2.143,0,0,1,2.105-.014,1.908,1.908,0,0,1,.98,1.691l.012,1.079c.1,9.091.206,18.493,2.841,27.184a2.519,2.519,0,0,0,.3.646c.162.25.327.521.494.8,2.55,4.29,7.78,8.477,15.126,12.106,17.113,8.408,22.06,15.1,26.456,35.784.694,3.151,1.234,10.406,1.485,15.661.575,11.978-.09,12.794-.571,13.387a2.157,2.157,0,0,1-1.7.814,2.665,2.665,0,0,1-.29-.016c-.695-.082-1.566-.591-4.954-3.7-4.36-4.079-8.658-6.958-19.156-12.833-13.6-7.6-17.558-11.175-21.186-19.109-3.243-7.069-3.789-15.743-2.019-32.013.745-6.242,1.229-9.78,1.446-10.555l-.016-.233C508.672,411.681,508.648,411.27,508.6,410.861Zm4.458,42.307c3.206,7.011,6.658,10.068,19.436,17.213,10.872,6.085,15.213,8.977,19.955,13.41.262.238.511.466.748.679.013-6.271-.675-18.685-1.6-22.9-4.1-19.313-8.405-25.161-24.233-32.936a49.075,49.075,0,0,1-15.195-11.544c-.207,1.578-.467,3.66-.776,6.265C509.708,438.773,510.16,446.852,513.054,453.168Z" transform="translate(-144.95 -215.61)"/>
    <path id="Path_547" data-name="Path 547" class="cls-2" d="M522.815,454.9c-3.631,7.935-7.592,11.506-21.186,19.109-10.5,5.876-14.8,8.754-19.159,12.833-3.386,3.108-4.257,3.616-4.953,3.7a2.607,2.607,0,0,1-.288.016,2.159,2.159,0,0,1-1.7-.814c-.483-.593-1.146-1.409-.573-13.387.253-5.255.792-12.509,1.485-15.661,4.4-20.687,9.343-27.376,26.456-35.784,7.347-3.63,12.578-7.817,15.127-12.106.168-.28.33-.55.495-.8a2.54,2.54,0,0,0,.3-.646c2.638-8.692,2.742-18.094,2.844-27.184l.011-1.079a1.909,1.909,0,0,1,.982-1.691,2.139,2.139,0,0,1,2.1.014,1.866,1.866,0,0,1,.914,1.677,243.743,243.743,0,0,1-2.175,27.77c-.049.409-.074.82-.092,1.235l-.017.233c.219.775.7,4.314,1.448,10.555C526.6,439.153,526.055,447.827,522.815,454.9Zm-2.108-31.543c-.31-2.605-.572-4.687-.779-6.265a49.055,49.055,0,0,1-15.193,11.544c-15.828,7.775-20.129,13.623-24.233,32.936-.928,4.217-1.614,16.631-1.6,22.9.237-.213.485-.441.747-.679,4.742-4.433,9.083-7.326,19.955-13.41,12.778-7.145,16.231-10.2,19.438-17.213C521.932,446.852,522.384,438.773,520.707,423.353Z" transform="translate(-52.734 -215.61)"/>
    <path id="Path_548" data-name="Path 548" class="cls-2" d="M458.706,373.227A408.05,408.05,0,0,1,637.032,299.71c136.421-20.951,268.762,22.654,363.648,117.1a417.159,417.159,0,0,1,86.343,124.315q.445.983.885,1.973a11.526,11.526,0,0,1,.106,9.137q-.407.978-.836,1.948c-7.976,18.465-19.862,35.13-33.039,50.335-17.087,19.693-36.429,37.507-55.713,55.034-20.093,18.255-40.937,35.781-63.361,51.18a359.543,359.543,0,0,1-33.905,20.728c-11.886,6.328-24.273,12.253-37.469,15.3-14.7,3.394-29.59,2.511-42.921-4.909-10.21-5.676-19.476-13.231-28.974-20.039-2.485-1.783-.077-5.944,2.446-4.142,7.917,5.7,15.7,11.659,23.869,16.97a56.746,56.746,0,0,0,17.742,8.093,53.838,53.838,0,0,0,18.956.767c13.35-1.63,26.007-7.056,37.912-13.078a338.8,338.8,0,0,0,33.6-19.578c22.116-14.573,42.632-31.371,62.359-48.974,18.956-16.932,37.835-34.267,55.077-52.963,15.427-16.692,29.675-35.189,38.8-56.075a11.52,11.52,0,0,0-.008-9.35c-64.794-143.615-209.766-243.914-377.827-244.144-223.267-.3-412.064,184.635-415.109,406.852-1.582,115.3,44.167,220.191,119.129,296.581A418.073,418.073,0,0,0,708,1128.453c222.465,0,404.2-180.3,410.517-404.38a1.412,1.412,0,0,0-2.16-1.225c-27.413,17.177-55.007,34.015-82.692,50.744q-47.968,28.993-96.38,57.258c-20.979,12.2-41.919,24.91-63.8,35.456a53.064,53.064,0,0,1-7.706,3.2c-10.961,3.336-22.154,3.317-33.443,4.6-27.953,3.164-52.572,16.127-77.172,28.84-11.347,5.867-22.347,12.291-33.443,18.581-6.916,3.931-14.024,7.67-21.807,9.53a97.91,97.91,0,0,1-25.854,2.589c-10.863-.418-20.493-4.042-29.451-9.5a35.749,35.749,0,0,1-24.589,7.57c-10.159-.568-19.694-4.89-27.862-10.743-2.289-1.639-4.475-3.4-6.592-5.228-3.664,4.144-9.054,6.03-14.435,6.841a70.3,70.3,0,0,1-19.862.4c-7.07-.986-12.851-4.228-18.382-8.579-5.022-3.95-9.873-8.148-14.62-12.424a2.668,2.668,0,0,1-.453.13c-6.432,1.2-12.862.688-19.339.219-6.61-.475-13.218-.964-19.818-1.557a346.382,346.382,0,0,1-38.118-5.235c-12.075-2.457-24.029-5.789-34.961-11.566-10.756-5.684-20.978-12.657-31.062-19.434a215.147,215.147,0,0,1-28.2-21.935c-6.066-5.747-19.211-17.716-9.461-26.081,4.088-3.507,9.733-3.461,14.622-1.885,5.708,1.841,11.185,4.825,16.424,7.692,10.5,5.742,20.452,12.416,30.725,18.543a193.9,193.9,0,0,0,17.425,9.392c6.378,2.972,12.967,5.48,20.071,5.8,7.433.33,14.982-.33,22.4-.738q10.317-.569,20.615-1.407a166.973,166.973,0,0,1-7.758-17.26c-5.66-14.71-11.039-29.532-16.547-44.3-5.31-14.242-11.135-28.417-14.174-43.356q-1.058-5.186-1.724-10.437c-.387-3.023-.533-6.244,1.874-8.523,3.953-3.746,10.282-1.389,14.391.717,11.277,5.781,19.715,17.132,25.383,28.127,3.262,6.326,5.953,12.919,8.885,19.4,3.244,7.168,7.108,14,10.828,20.925,3.729,6.945,6.927,14.1,11.038,20.842,2.786,4.569,5.7,9.077,8.324,13.743a47.308,47.308,0,0,1,4.4-9.176c11.617-19.586,23.752-38.928,38.086-56.675,1.587-1.966,3.177-3.954,4.672-6.008q-20.06-4.073-39.91-9.091c-11.507-2.922-23.344-5.659-34.1-10.8a70.511,70.511,0,0,1-25.19-20.305c-2.316-3.04-5.311-7.605-3.431-11.545,1.8-3.784,6.683-4.332,10.466-4.353a58.652,58.652,0,0,1,9.156.748c10.238,1.565,20.54,2.61,30.85,3.536,15.546,1.4,31.122,2.533,46.591,4.666,1.863.257,3.722.565,5.587.816.138.016.276.033.414.045.842.067,1.68.125,2.523.153,2.339.079,4.683.041,7.022-.021,7.723-.2,15.44-.69,23.148-1.187,2.525-.163,5.051-.341,7.577-.521,3.142-.223,3.681,4.587.545,4.867l-.082.008c-11.216.828-22.449,1.539-33.671,1.678a78.368,78.368,0,0,1-12.044-.9c-17.984-2.568-36.114-3.678-54.18-5.425-7.4-.715-14.8-1.543-22.164-2.6-4.589-.66-9.482-1.589-14.119-.9-1.1.161-2.952.418-3.362,1.64-.541,1.613,1.433,4.2,2.246,5.388a58.643,58.643,0,0,0,11.1,11.448c8.694,7.227,18.877,11.342,29.653,14.463,12.079,3.5,24.335,6.462,36.6,9.257q10.517,2.4,21.094,4.526a2.481,2.481,0,0,1,.532.167,41.345,41.345,0,0,0,2.379-4.467c1.963-4.365,3.758-9.248,9.569-8.665,5.954.6,8.927,5.618,10.012,11.25a8.456,8.456,0,0,1,1.934-1.858c3.16-2.148,6.878-.633,9.324,1.918,4.18,4.391,6.589,11.14,7.243,17.047.848,7.555-1.734,14.8-3.756,21.975a177.439,177.439,0,0,0-4.951,20.921c-1.118,7.344-.366,15.014,5.356,20.364,2.581,2.4,5.934,3.912,9.093,5.407,5.587,2.665,11.193,5.292,16.644,8.226A120.255,120.255,0,0,1,650.454,861.3c2.427,1.938,5.009,4.794,8.206,5.389,4.835.882,8.611-2.205,11.886-5.676,7.513-8,13.735-17.315,20.382-26.022,7.86-10.277,15.681-20.709,24.427-30.278a42.758,42.758,0,0,1,10.365-8.782c14.063-8.054,30.168-9.012,46-9.319a158.247,158.247,0,0,1,41.38,4.64c3.005.748,1.734,5.369-1.271,4.621a160.634,160.634,0,0,0-43.21-4.391c-14.564.364-29.59,1.554-42.17,9.607-3.679,2.339-7.185,6.347-10.344,10.009-9.286,10.7-17.8,22.052-26.354,33.327-5.51,7.287-10.769,15.264-17.415,21.61-3.737,3.567-8.226,6.021-13.543,5.485-3.449-.365-6.068-2.244-8.688-4.353a115.981,115.981,0,0,0-14.082-9.894c-6.2-3.625-12.618-6.846-19.111-9.9a74.7,74.7,0,0,1-10.6-5.484,23.769,23.769,0,0,1-10.133-17.45,48.493,48.493,0,0,1,1.214-13.538c1.522-7.612,3.718-15.092,5.837-22.57,2-7.075,3.178-13.787.694-20.94a22.758,22.758,0,0,0-4.469-8.13,4.2,4.2,0,0,0-2.6-1.591c-.251-.019-.308-.019-.636.23-2.235,1.745-3.391,5.945-4.431,8.552-.113.283-.229.568-.343.851-.019.087-.035.181-.054.263a2.433,2.433,0,0,1-.4.859c-2.144,5.365-4.294,10.737-6.662,16.013-5.221,11.64-12.541,22.628-16.663,34.708a74.392,74.392,0,0,0-3.873,19.176c-.366,5.81,1.888,11.121,5.51,15.608,4.315,5.292,9.9,9.511,15.354,13.576,6.742,5.063,13.562,9.991,20.054,15.379a310.6,310.6,0,0,1,24.37,22.531,93.852,93.852,0,0,0,16.933,13.96c6.165,3.931,12.484,7.094,19.708,8.533a63.18,63.18,0,0,0,17.935.633c7.455-.71,14.853-1.554,21.884-4.276,8.168-3.145,15.662-7.978,23.195-12.331,13.1-7.536,26.469-14.477,39.954-21.246,11.135-5.58,22.385-11.083,34.233-15a150.4,150.4,0,0,1,36.448-7.018c9.19-.671,18.282-1.3,27.029-4.429.25-.1.5-.193.732-.288.038-.019.057-.019.076-.039h.019l.154-.076c.617-.269,1.253-.537,1.869-.825,1.426-.671,2.832-1.362,4.238-2.071,3.949-1.976,7.859-4.046,11.732-6.156,11.25-6.059,22.347-12.387,33.443-18.735,30.63-17.583,60.991-35.608,91.274-53.787q46.322-27.814,92.276-56.261c5.452-3.393,10.962-6.768,16.452-10.162l.185-.113a3.01,3.01,0,0,1,4.595,2.608l0,.056c-1.6,109.568-44.366,212.56-120.826,290.643-78.444,80.1-183.07,124.2-294.63,124.2-112.022,0-218.016-44.1-298.483-124.181-1.194-1.189-2.369-2.378-3.545-3.586-78.213-79.617-121.211-183.644-121.211-293.5C284.758,578.414,347.366,454.423,458.706,373.227Zm22.751,485.31c-12.711,1.049-25.446,1.837-38.193,2.282-5.876.2-11.678.042-17.367-1.587a92.915,92.915,0,0,1-15.7-6.47c-9.954-4.963-19.323-10.976-28.756-16.832-9.449-5.866-19.145-12.038-29.571-16.06-3.994-1.542-12.1-3.116-13.479,2.853-1.2,5.208,5.436,10.61,8.5,13.747a126.654,126.654,0,0,0,16.793,14.695c11.645,8.337,23.7,16.45,36.048,23.917a116.022,116.022,0,0,0,30.441,13.135c14.673,3.863,29.717,5.977,44.8,7.425,6.749.65,13.512,1.173,20.274,1.667,6.122.449,12.423,1.243,18.567.581a199.968,199.968,0,0,1-23.176-25.578,131.073,131.073,0,0,1-9-13.8A1.408,1.408,0,0,1,481.457,858.537Zm19.066-48.278c-2.438-4.982-4.911-9.947-7.68-14.752a210.6,210.6,0,0,1-10.089-20.543c-4.88-11.1-9.919-21.875-18.311-30.833-3.944-4.207-8.505-8.109-13.934-10.268-1.661-.662-4.68-1.753-6.3-.43-1.16.946-.721,2.965-.576,4.238.209,1.879.518,3.754.834,5.618,2.4,14.063,7.37,27.317,12.337,40.635q7.675,20.586,15.352,41.17c4.583,12.287,9.2,24.412,16.251,35.549a167.775,167.775,0,0,0,23.56,28.784c4.98,4.969,10.185,9.708,15.528,14.29,5.176,4.439,10.432,9.406,16.659,12.345,6.791,3.207,14.782,2.84,22.085,2.276,5.7-.438,11.747-1.518,15.75-5.827-4.625-4.342-8.957-9-13.279-13.653a229.279,229.279,0,0,0-24.53-23.209c-8.12-6.495-17.276-12.429-22.327-21.819a27.421,27.421,0,0,1-3.447-12.069C513.187,830.857,505.838,821.13,500.523,810.259Zm121.612,94.915a274.28,274.28,0,0,0-30.38-26.443c-10.633-8.016-24.62-15.9-30.419-28.476-2.524-5.465-2.658-10.834-1.791-16.682a84.306,84.306,0,0,1,4.2-17.7c4.7-12.388,12-23.739,17.338-35.877,2.028-4.629,3.843-9.341,5.733-14.013a24.177,24.177,0,0,0-.642-11.67c-.72-2.495-3.986-6.827-7.045-4.5-1.437,1.1-1.917,3.5-2.6,5.07a45.127,45.127,0,0,1-3.56,6.575,136.1,136.1,0,0,1-8.478,11.178c-12.89,15.981-23.622,33.5-34.239,51.022-2.547,4.2-5.341,8.434-6.542,13.251a20.027,20.027,0,0,0,1.926,13.782c4.3,8.581,12.5,14.186,19.884,19.942a203.173,203.173,0,0,1,22.095,20.04c6.825,7.159,13.306,14.683,20.767,21.208,7.752,6.779,16.847,12.543,27.114,14.495,8.5,1.615,17.824.138,24.856-4.987q-1.02-.7-2.033-1.432C632.307,915.644,627.317,910.408,622.135,905.174Z" transform="translate(-284.758 -294.55)"/>
  </g>
</svg>
